  0
SECTION
  2
HEADER
  9
$ACADVER
  1
AC1015
  9
$ACADMAINTVER
 70
     6
  9
$DWGCODEPAGE
  3
ANSI_1252
  9
$INSBASE
 10
0.0
 20
0.0
 30
0.0
  9
$EXTMIN
 10
-135.8698793562
 20
-94.4566928735
 30
0.0
  9
$EXTMAX
 10
282.6997797252
 20
113.5634256309
 30
0.0
  9
$LIMMIN
 10
0.0
 20
0.0
  9
$LIMMAX
 10
420.0
 20
297.0
  9
$ORTHOMODE
 70
     0
  9
$REGENMODE
 70
     1
  9
$FILLMODE
 70
     1
  9
$QTEXTMODE
 70
     0
  9
$MIRRTEXT
 70
     1
  9
$LTSCALE
 40
1.0
  9
$ATTMODE
 70
     1
  9
$TEXTSIZE
 40
3.175
  9
$TRACEWID
 40
1.0
  9
$TEXTSTYLE
  7
Standard
  9
$CLAYER
  8
0
  9
$CELTYPE
  6
ByLayer
  9
$CECOLOR
 62
   256
  9
$CELTSCALE
 40
1.0
  9
$DISPSILH
 70
     0
  9
$DIMSCALE
 40
1.0
  9
$DIMASZ
 40
3.302
  9
$DIMEXO
 40
1.27
  9
$DIMDLI
 40
3.75
  9
$DIMRND
 40
0.0
  9
$DIMDLE
 40
0.0
  9
$DIMEXE
 40
3.175
  9
$DIMTP
 40
0.0
  9
$DIMTM
 40
0.0
  9
$DIMTXT
 40
3.175
  9
$DIMCEN
 40
2.5
  9
$DIMTSZ
 40
0.0
  9
$DIMTOL
 70
     0
  9
$DIMLIM
 70
     0
  9
$DIMTIH
 70
     1
  9
$DIMTOH
 70
     1
  9
$DIMSE1
 70
     0
  9
$DIMSE2
 70
     0
  9
$DIMTAD
 70
     0
  9
$DIMZIN
 70
     0
  9
$DIMBLK
  1

  9
$DIMASO
 70
     1
  9
$DIMSHO
 70
     1
  9
$DIMPOST
  1

  9
$DIMAPOST
  1

  9
$DIMALT
 70
     0
  9
$DIMALTD
 70
     3
  9
$DIMALTF
 40
0.0393700787
  9
$DIMLFAC
 40
1.0
  9
$DIMTOFL
 70
     1
  9
$DIMTVP
 40
0.0
  9
$DIMTIX
 70
     0
  9
$DIMSOXD
 70
     0
  9
$DIMSAH
 70
     0
  9
$DIMBLK1
  1

  9
$DIMBLK2
  1

  9
$DIMSTYLE
  2
ISO-25
  9
$DIMCLRD
 70
     0
  9
$DIMCLRE
 70
     0
  9
$DIMCLRT
 70
     0
  9
$DIMTFAC
 40
1.0
  9
$DIMGAP
 40
1.524
  9
$DIMJUST
 70
     0
  9
$DIMSD1
 70
     0
  9
$DIMSD2
 70
     0
  9
$DIMTOLJ
 70
     0
  9
$DIMTZIN
 70
     0
  9
$DIMALTZ
 70
     0
  9
$DIMALTTZ
 70
     0
  9
$DIMUPT
 70
     0
  9
$DIMDEC
 70
     2
  9
$DIMTDEC
 70
     2
  9
$DIMALTU
 70
     2
  9
$DIMALTTD
 70
     3
  9
$DIMTXSTY
  7
Standard
  9
$DIMAUNIT
 70
     0
  9
$DIMADEC
 70
     2
  9
$DIMALTRND
 40
0.0
  9
$DIMAZIN
 70
     0
  9
$DIMDSEP
 70
    44
  9
$DIMATFIT
 70
     3
  9
$DIMFRAC
 70
     0
  9
$DIMLDRBLK
  1

  9
$DIMLUNIT
 70
     2
  9
$DIMLWD
 70
    -2
  9
$DIMLWE
 70
    -2
  9
$DIMTMOVE
 70
     0
  9
$LUNITS
 70
     2
  9
$LUPREC
 70
     2
  9
$SKETCHINC
 40
1.0
  9
$FILLETRAD
 40
10.0
  9
$AUNITS
 70
     0
  9
$AUPREC
 70
     2
  9
$MENU
  1
.
  9
$ELEVATION
 40
0.0
  9
$PELEVATION
 40
0.0
  9
$THICKNESS
 40
0.0
  9
$LIMCHECK
 70
     0
  9
$CHAMFERA
 40
10.0
  9
$CHAMFERB
 40
10.0
  9
$CHAMFERC
 40
20.0
  9
$CHAMFERD
 40
0.0
  9
$SKPOLY
 70
     0
  9
$TDCREATE
 40
2458213.027922442
  9
$TDUCREATE
 40
2458213.194589109
  9
$TDUPDATE
 40
2458213.027977245
  9
$TDUUPDATE
 40
2458213.194643912
  9
$TDINDWG
 40
0.0000000116
  9
$TDUSRTIMER
 40
0.0000000116
  9
$USRTIMER
 70
     1
  9
$ANGBASE
 50
0.0
  9
$ANGDIR
 70
     0
  9
$PDMODE
 70
     0
  9
$PDSIZE
 40
-1.0
  9
$PLINEWID
 40
0.0
  9
$SPLFRAME
 70
     0
  9
$SPLINETYPE
 70
     6
  9
$SPLINESEGS
 70
     8
  9
$HANDSEED
  5
1D1
  9
$SURFTAB1
 70
     6
  9
$SURFTAB2
 70
     6
  9
$SURFTYPE
 70
     6
  9
$SURFU
 70
     6
  9
$SURFV
 70
     6
  9
$UCSBASE
  2

  9
$UCSNAME
  2

  9
$UCSORG
 10
0.0
 20
0.0
 30
0.0
  9
$UCSXDIR
 10
1.0
 20
0.0
 30
0.0
  9
$UCSYDIR
 10
0.0
 20
1.0
 30
0.0
  9
$UCSORTHOREF
  2

  9
$UCSORTHOVIEW
 70
     0
  9
$UCSORGTOP
 10
0.0
 20
0.0
 30
0.0
  9
$UCSORGBOTTOM
 10
0.0
 20
0.0
 30
0.0
  9
$UCSORGLEFT
 10
0.0
 20
0.0
 30
0.0
  9
$UCSORGRIGHT
 10
0.0
 20
0.0
 30
0.0
  9
$UCSORGFRONT
 10
0.0
 20
0.0
 30
0.0
  9
$UCSORGBACK
 10
0.0
 20
0.0
 30
0.0
  9
$PUCSBASE
  2

  9
$PUCSNAME
  2

  9
$PUCSORG
 10
0.0
 20
0.0
 30
0.0
  9
$PUCSXDIR
 10
1.0
 20
0.0
 30
0.0
  9
$PUCSYDIR
 10
0.0
 20
1.0
 30
0.0
  9
$PUCSORTHOREF
  2

  9
$PUCSORTHOVIEW
 70
     0
  9
$PUCSORGTOP
 10
0.0
 20
0.0
 30
0.0
  9
$PUCSORGBOTTOM
 10
0.0
 20
0.0
 30
0.0
  9
$PUCSORGLEFT
 10
0.0
 20
0.0
 30
0.0
  9
$PUCSORGRIGHT
 10
0.0
 20
0.0
 30
0.0
  9
$PUCSORGFRONT
 10
0.0
 20
0.0
 30
0.0
  9
$PUCSORGBACK
 10
0.0
 20
0.0
 30
0.0
  9
$USERI1
 70
     0
  9
$USERI2
 70
     0
  9
$USERI3
 70
     0
  9
$USERI4
 70
     0
  9
$USERI5
 70
     0
  9
$USERR1
 40
0.0
  9
$USERR2
 40
0.0
  9
$USERR3
 40
0.0
  9
$USERR4
 40
0.0
  9
$USERR5
 40
0.0
  9
$WORLDVIEW
 70
     1
  9
$SHADEDGE
 70
     3
  9
$SHADEDIF
 70
    70
  9
$TILEMODE
 70
     1
  9
$MAXACTVP
 70
    64
  9
$PINSBASE
 10
0.0
 20
0.0
 30
0.0
  9
$PLIMCHECK
 70
     0
  9
$PEXTMIN
 10
-135.8698793562
 20
-94.4566928735
 30
0.0
  9
$PEXTMAX
 10
282.6997797252
 20
113.5634256309
 30
0.0
  9
$PLIMMIN
 10
0.0
 20
0.0
  9
$PLIMMAX
 10
420.0
 20
297.0
  9
$UNITMODE
 70
     0
  9
$VISRETAIN
 70
     1
  9
$PLINEGEN
 70
     0
  9
$PSLTSCALE
 70
     1
  9
$TREEDEPTH
 70
  3020
  9
$CMLSTYLE
  2
Standard
  9
$CMLJUST
 70
     0
  9
$CMLSCALE
 40
20.0
  9
$PROXYGRAPHICS
 70
     1
  9
$MEASUREMENT
 70
     1
  9
$CELWEIGHT
370
    -1
  9
$ENDCAPS
280
     0
  9
$JOINSTYLE
280
     0
  9
$LWDISPLAY
290
     1
  9
$INSUNITS
 70
     4
  9
$HYPERLINKBASE
  1

  9
$STYLESHEET
  1

  9
$XEDIT
290
     1
  9
$CEPSNTYPE
380
     0
  9
$PSTYLEMODE
290
     1
  9
$FINGERPRINTGUID
  2
{8854F969-6C80-445B-836F-1F4837F9CEA4}
  9
$VERSIONGUID
  2
{FAEB1C32-E019-11D5-929B-00C0DF256EC4}
  9
$EXTNAMES
290
     1
  9
$PSVPSCALE
 40
0.0
  9
$OLESTARTUP
290
     0
  0
ENDSEC
  0
SECTION
  2
CLASSES
  0
CLASS
  1
ACDBDICTIONARYWDFLT
  2
AcDbDictionaryWithDefault
  3
ObjectDBX Classes
 90
        0
280
     0
281
     0
  0
CLASS
  1
VISUALSTYLE
  2
AcDbVisualStyle
  3
ObjectDBX Classes
 90
     4095
280
     0
281
     0
  0
CLASS
  1
MATERIAL
  2
AcDbMaterial
  3
ObjectDBX Classes
 90
     1153
280
     0
281
     0
  0
CLASS
  1
ACDBPLACEHOLDER
  2
AcDbPlaceHolder
  3
ObjectDBX Classes
 90
        0
280
     0
281
     0
  0
CLASS
  1
LAYOUT
  2
AcDbLayout
  3
ObjectDBX Classes
 90
        0
280
     0
281
     0
  0
ENDSEC
  0
SECTION
  2
TABLES
  0
TABLE
  2
VPORT
  5
8
330
0
100
AcDbSymbolTable
 70
     1
  0
VPORT
  5
29
330
8
100
AcDbSymbolTableRecord
100
AcDbViewportTableRecord
  2
*Active
 70
     0
 10
0.0
 20
0.0
 11
1.0
 21
1.0
 12
73.4149501845
 22
9.5533663787
 13
0.0
 23
0.0
 14
10.0
 24
10.0
 15
10.0
 25
10.0
 16
0.0
 26
0.0
 36
1.0
 17
0.0
 27
0.0
 37
0.0
 40
212.1805208745
 41
2.0121595069
 42
50.0
 43
0.0
 44
0.0
 50
0.0
 51
0.0
 71
     0
 72
   100
 73
     1
 74
     3
 75
     0
 76
     0
 77
     0
 78
     0
281
     0
 65
     1
110
0.0
120
0.0
130
0.0
111
1.0
121
0.0
131
0.0
112
0.0
122
1.0
132
0.0
 79
     0
146
0.0
  0
ENDTAB
  0
TABLE
  2
LTYPE
  5
5
330
0
100
AcDbSymbolTable
 70
     6
  0
LTYPE
  5
14
330
5
100
AcDbSymbolTableRecord
100
AcDbLinetypeTableRecord
  2
ByBlock
 70
     0
  3

 72
    65
 73
     0
 40
0.0
  0
LTYPE
  5
15
330
5
100
AcDbSymbolTableRecord
100
AcDbLinetypeTableRecord
  2
ByLayer
 70
     0
  3

 72
    65
 73
     0
 40
0.0
  0
LTYPE
  5
16
330
5
100
AcDbSymbolTableRecord
100
AcDbLinetypeTableRecord
  2
Continuous
 70
     0
  3
Solid line
 72
    65
 73
     0
 40
0.0
  0
LTYPE
  5
3F
330
5
100
AcDbSymbolTableRecord
100
AcDbLinetypeTableRecord
  2
HIDDEN
 70
     0
  3
Hidden __ __ __ __ __ __ __ __ __ __ __ __ __ __
 72
    65
 73
     2
 40
1.905
 49
1.27
 74
     0
 49
-0.635
 74
     0
  0
LTYPE
  5
40
330
5
100
AcDbSymbolTableRecord
100
AcDbLinetypeTableRecord
  2
PHANTOM
 70
     0
  3
Phantom ______  __  __  ______  __  __  ______
 72
    65
 73
     6
 40
12.7
 49
6.35
 74
     0
 49
-1.27
 74
     0
 49
1.27
 74
     0
 49
-1.27
 74
     0
 49
1.27
 74
     0
 49
-1.27
 74
     0
  0
LTYPE
  5
41
330
5
100
AcDbSymbolTableRecord
100
AcDbLinetypeTableRecord
  2
CENTER
 70
     0
  3
Center ____ _ ____ _ ____ _ ____ _ ____ _ ____
 72
    65
 73
     4
 40
10.16
 49
6.35
 74
     0
 49
-1.27
 74
     0
 49
1.27
 74
     0
 49
-1.27
 74
     0
  0
LTYPE
  5
42
330
5
100
AcDbSymbolTableRecord
100
AcDbLinetypeTableRecord
  2
CENTERX2
 70
     0
  3
Center (2x) ________  __  ________  __  _____
 72
    65
 73
     4
 40
20.32
 49
12.7
 74
     0
 49
-2.54
 74
     0
 49
2.54
 74
     0
 49
-2.54
 74
     0
  0
LTYPE
  5
43
330
5
100
AcDbSymbolTableRecord
100
AcDbLinetypeTableRecord
  2
DOT2
 70
     0
  3
Dot (.5x) ........................................
 72
    65
 73
     2
 40
0.635
 49
0.0
 74
     0
 49
-0.635
 74
     0
  0
ENDTAB
  0
TABLE
  2
LAYER
  5
2
330
0
100
AcDbSymbolTable
 70
     1
  0
LAYER
  5
10
330
2
100
AcDbSymbolTableRecord
100
AcDbLayerTableRecord
  2
0
 70
     0
 62
     7
  6
Continuous
370
    -3
390
F
  0
ENDTAB
  0
TABLE
  2
STYLE
  5
3
330
0
100
AcDbSymbolTable
 70
     1
  0
STYLE
  5
11
330
3
100
AcDbSymbolTableRecord
100
AcDbTextStyleTableRecord
  2
Standard
 70
     0
 40
0.0
 41
1.0
 50
0.0
 71
     0
 42
3.175
  3
txt
  4

  0
ENDTAB
  0
TABLE
  2
VIEW
  5
6
330
0
100
AcDbSymbolTable
 70
     0
  0
ENDTAB
  0
TABLE
  2
UCS
  5
7
330
0
100
AcDbSymbolTable
 70
     0
  0
ENDTAB
  0
TABLE
  2
APPID
  5
9
330
0
100
AcDbSymbolTable
 70
     1
  0
APPID
  5
12
330
9
100
AcDbSymbolTableRecord
100
AcDbRegAppTableRecord
  2
ACAD
 70
     0
  0
ENDTAB
  0
TABLE
  2
DIMSTYLE
  5
A
330
0
100
AcDbSymbolTable
 70
     1
100
AcDbDimStyleTable
  0
DIMSTYLE
105
27
330
A
100
AcDbSymbolTableRecord
100
AcDbDimStyleTableRecord
  2
ISO-25
 70
     0
 41
2.5
 42
0.625
 43
3.75
 44
1.25
 73
     0
 74
     0
 77
     1
 78
     8
140
2.5
141
2.5
143
0.0393700787
147
0.625
171
     3
172
     1
178
     0
271
     2
272
     2
274
     3
278
    44
283
     0
284
     8
340
11
  0
ENDTAB
  0
TABLE
  2
BLOCK_RECORD
  5
1
330
0
100
AcDbSymbolTable
 70
     1
  0
BLOCK_RECORD
  5
1F
330
1
100
AcDbSymbolTableRecord
100
AcDbBlockTableRecord
  2
*Model_Space
340
22
  0
BLOCK_RECORD
  5
1B
330
1
100
AcDbSymbolTableRecord
100
AcDbBlockTableRecord
  2
*Paper_Space
340
1E
  0
BLOCK_RECORD
  5
23
330
1
100
AcDbSymbolTableRecord
100
AcDbBlockTableRecord
  2
*Paper_Space0
340
26
  0
ENDTAB
  0
ENDSEC
  0
SECTION
  2
BLOCKS
  0
BLOCK
  5
20
330
1F
100
AcDbEntity
  8
0
100
AcDbBlockBegin
  2
*Model_Space
 70
     0
 10
0.0
 20
0.0
 30
0.0
  3
*Model_Space
  1

  0
ENDBLK
  5
21
330
1F
100
AcDbEntity
  8
0
100
AcDbBlockEnd
  0
BLOCK
  5
1C
330
1B
100
AcDbEntity
 67
     1
  8
0
100
AcDbBlockBegin
  2
*Paper_Space
 70
     0
 10
0.0
 20
0.0
 30
0.0
  3
*Paper_Space
  1

  0
ENDBLK
  5
1D
330
1B
100
AcDbEntity
 67
     1
  8
0
100
AcDbBlockEnd
  0
BLOCK
  5
24
330
23
100
AcDbEntity
  8
0
100
AcDbBlockBegin
  2
*Paper_Space0
 70
     0
 10
0.0
 20
0.0
 30
0.0
  3
*Paper_Space0
  1

  0
ENDBLK
  5
25
330
23
100
AcDbEntity
  8
0
100
AcDbBlockEnd
  0
ENDSEC
  0
SECTION
  2
ENTITIES
  0
CIRCLE
  5
48
330
1F
100
AcDbEntity
  8
0
  6
Continuous
 62
     7
370
    15
100
AcDbCircle
 10
-39.1464420989
 20
-84.1840259562
 30
0.0
 40
1.749999999999993
  0
CIRCLE
  5
49
330
1F
100
AcDbEntity
  8
0
  6
Continuous
 62
     7
370
    15
100
AcDbCircle
 10
-39.1464420989
 20
-74.1840259562
 30
0.0
 40
1.750000000000014
  0
CIRCLE
  5
4A
330
1F
100
AcDbEntity
  8
0
  6
Continuous
 62
     7
370
    15
100
AcDbCircle
 10
-39.1464420989
 20
100.8159740438
 30
0.0
 40
1.750000000000014
  0
CIRCLE
  5
4B
330
1F
100
AcDbEntity
  8
0
  6
Continuous
 62
     7
370
    15
100
AcDbCircle
 10
-39.1464420989
 20
25.8159740438
 30
0.0
 40
1.750000000000007
  0
CIRCLE
  5
4C
330
1F
100
AcDbEntity
  8
0
  6
Continuous
 62
     7
370
    15
100
AcDbCircle
 10
-39.1464420989
 20
90.8159740438
 30
0.0
 40
1.749999999999993
  0
CIRCLE
  5
4D
330
1F
100
AcDbEntity
  8
0
  6
Continuous
 62
     7
370
    15
100
AcDbCircle
 10
-39.1464420989
 20
10.8159740438
 30
0.0
 40
1.750000000000007
  0
CIRCLE
  5
50
330
1F
100
AcDbEntity
  8
0
  6
Continuous
 62
     7
370
    15
100
AcDbCircle
 10
-12.1629788412
 20
-84.7293680516
 30
0.0
 40
1.750000000000016
  0
CIRCLE
  5
53
330
1F
100
AcDbEntity
  8
0
  6
Continuous
 62
     7
370
    15
100
AcDbCircle
 10
-12.1629788412
 20
25.2706319484
 30
0.0
 40
1.750000000000002
  0
CIRCLE
  5
54
330
1F
100
AcDbEntity
  8
0
  6
Continuous
 62
     7
370
    15
100
AcDbCircle
 10
-12.1629788412
 20
10.2706319484
 30
0.0
 40
1.750000000000002
  0
CIRCLE
  5
55
330
1F
100
AcDbEntity
  8
0
  6
Continuous
 62
     7
370
    15
100
AcDbCircle
 10
-12.1629788412
 20
100.2706319484
 30
0.0
 40
1.750000000000021
  0
CIRCLE
  5
56
330
1F
100
AcDbEntity
  8
0
  6
Continuous
 62
     7
370
    15
100
AcDbCircle
 10
-12.1629788412
 20
90.2706319484
 30
0.0
 40
1.750000000000012
  0
CIRCLE
  5
57
330
1F
100
AcDbEntity
  8
0
  6
Continuous
 62
     7
370
    15
100
AcDbCircle
 10
-12.1629788412
 20
-74.7293680516
 30
0.0
 40
1.750000000000002
  0
CIRCLE
  5
59
330
1F
100
AcDbEntity
  8
0
  6
Continuous
 62
     7
370
    15
100
AcDbCircle
 10
-64.0657319373
 20
98.3135061168
 30
0.0
 40
1.750000000000014
  0
CIRCLE
  5
5A
330
1F
100
AcDbEntity
  8
0
  6
Continuous
 62
     7
370
    15
100
AcDbCircle
 10
-64.0657319373
 20
88.3135061168
 30
0.0
 40
1.750000000000028
  0
CIRCLE
  5
5B
330
1F
100
AcDbEntity
  8
0
  6
Continuous
 62
     7
370
    15
100
AcDbCircle
 10
-64.0657319373
 20
-36.0984938832
 30
0.0
 40
1.750000000000014
  0
CIRCLE
  5
5C
330
1F
100
AcDbEntity
  8
0
  6
Continuous
 62
     7
370
    15
100
AcDbCircle
 10
-64.0657319373
 20
-46.0984938832
 30
0.0
 40
1.750000000000014
  0
CIRCLE
  5
5D
330
1F
100
AcDbEntity
  8
0
  6
Continuous
 62
     7
370
    15
100
AcDbCircle
 10
-64.0657319373
 20
43.6075061168
 30
0.0
 40
1.75
  0
CIRCLE
  5
5E
330
1F
100
AcDbEntity
  8
0
  6
Continuous
 62
     7
370
    15
100
AcDbCircle
 10
-64.0657319373
 20
8.6075061168
 30
0.0
 40
1.75
  0
CIRCLE
  5
5F
330
1F
100
AcDbEntity
  8
0
  6
Continuous
 62
     7
370
    15
100
AcDbCircle
 10
-64.0657319373
 20
26.1075061168
 30
0.0
 40
1.75
  0
CIRCLE
  5
65
330
1F
100
AcDbEntity
  8
0
  6
Continuous
 62
     7
370
    15
100
AcDbCircle
 10
-86.9224230101
 20
97.9014712743
 30
0.0
 40
1.750000000000028
  0
CIRCLE
  5
66
330
1F
100
AcDbEntity
  8
0
  6
Continuous
 62
     7
370
    15
100
AcDbCircle
 10
-86.9224230101
 20
87.9014712743
 30
0.0
 40
1.75
  0
CIRCLE
  5
67
330
1F
100
AcDbEntity
  8
0
  6
Continuous
 62
     7
370
    15
100
AcDbCircle
 10
-86.9224230101
 20
-36.5105287257
 30
0.0
 40
1.750000000000028
  0
CIRCLE
  5
68
330
1F
100
AcDbEntity
  8
0
  6
Continuous
 62
     7
370
    15
100
AcDbCircle
 10
-86.9224230101
 20
-46.5105287257
 30
0.0
 40
1.750000000000028
  0
CIRCLE
  5
69
330
1F
100
AcDbEntity
  8
0
  6
Continuous
 62
     7
370
    15
100
AcDbCircle
 10
-86.9224230101
 20
43.1954712743
 30
0.0
 40
1.75
  0
CIRCLE
  5
6A
330
1F
100
AcDbEntity
  8
0
  6
Continuous
 62
     7
370
    15
100
AcDbCircle
 10
-86.9224230101
 20
8.1954712743
 30
0.0
 40
1.75
  0
CIRCLE
  5
6B
330
1F
100
AcDbEntity
  8
0
  6
Continuous
 62
     7
370
    15
100
AcDbCircle
 10
-86.9224230101
 20
25.6954712743
 30
0.0
 40
1.75
  0
CIRCLE
  5
72
330
1F
100
AcDbEntity
  8
0
  6
Continuous
 62
     7
370
    15
100
AcDbCircle
 10
-128.3698793562
 20
97.7721514866
 30
0.0
 40
1.750000000000085
  0
CIRCLE
  5
73
330
1F
100
AcDbEntity
  8
0
  6
Continuous
 62
     7
370
    15
100
AcDbCircle
 10
-128.3698793562
 20
87.7721514866
 30
0.0
 40
1.750000000000028
  0
CIRCLE
  5
74
330
1F
100
AcDbEntity
  8
0
  6
Continuous
 62
     7
370
    15
100
AcDbCircle
 10
-128.3698793562
 20
-36.6398485134
 30
0.0
 40
1.750000000000028
  0
CIRCLE
  5
75
330
1F
100
AcDbEntity
  8
0
  6
Continuous
 62
     7
370
    15
100
AcDbCircle
 10
-128.3698793562
 20
-46.6398485134
 30
0.0
 40
1.750000000000028
  0
CIRCLE
  5
76
330
1F
100
AcDbEntity
  8
0
  6
Continuous
 62
     7
370
    15
100
AcDbCircle
 10
-128.3698793562
 20
44.5661514866
 30
0.0
 40
1.75
  0
CIRCLE
  5
77
330
1F
100
AcDbEntity
  8
0
  6
Continuous
 62
     7
370
    15
100
AcDbCircle
 10
-128.3698793562
 20
6.5661514866
 30
0.0
 40
1.749999999999972
  0
CIRCLE
  5
78
330
1F
100
AcDbEntity
  8
0
  6
Continuous
 62
     7
370
    15
100
AcDbCircle
 10
-128.3698793562
 20
25.5661514866
 30
0.0
 40
1.75
  0
CIRCLE
  5
7A
330
1F
100
AcDbEntity
  8
0
  6
Continuous
 62
     7
370
    15
100
AcDbCircle
 10
-107.4639389675
 20
97.7721514866
 30
0.0
 40
1.750000000000028
  0
CIRCLE
  5
7B
330
1F
100
AcDbEntity
  8
0
  6
Continuous
 62
     7
370
    15
100
AcDbCircle
 10
-107.4639389675
 20
87.7721514866
 30
0.0
 40
1.750000000000014
  0
CIRCLE
  5
7C
330
1F
100
AcDbEntity
  8
0
  6
Continuous
 62
     7
370
    15
100
AcDbCircle
 10
-107.4639389675
 20
-36.6398485134
 30
0.0
 40
1.750000000000014
  0
CIRCLE
  5
7D
330
1F
100
AcDbEntity
  8
0
  6
Continuous
 62
     7
370
    15
100
AcDbCircle
 10
-107.4639389675
 20
-46.6398485134
 30
0.0
 40
1.750000000000014
  0
CIRCLE
  5
7E
330
1F
100
AcDbEntity
  8
0
  6
Continuous
 62
     7
370
    15
100
AcDbCircle
 10
-107.4639389675
 20
44.5661514866
 30
0.0
 40
1.75
  0
CIRCLE
  5
7F
330
1F
100
AcDbEntity
  8
0
  6
Continuous
 62
     7
370
    15
100
AcDbCircle
 10
-107.4639389675
 20
6.5661514866
 30
0.0
 40
1.75
  0
CIRCLE
  5
80
330
1F
100
AcDbEntity
  8
0
  6
Continuous
 62
     7
370
    15
100
AcDbCircle
 10
-107.4639389675
 20
25.5661514866
 30
0.0
 40
1.75
  0
CIRCLE
  5
84
330
1F
100
AcDbEntity
  8
0
  6
Continuous
 62
     7
370
    15
100
AcDbCircle
 10
11.6871510422
 20
-51.9115019175
 30
0.0
 40
1.650999999999994
  0
CIRCLE
  5
85
330
1F
100
AcDbEntity
  8
0
  6
Continuous
 62
     7
370
    15
100
AcDbCircle
 10
77.7271510422
 20
-51.9115019175
 30
0.0
 40
1.650999999999982
  0
CIRCLE
  5
86
330
1F
100
AcDbEntity
  8
0
  6
Continuous
 62
     7
370
    15
100
AcDbCircle
 10
11.6871510422
 20
-77.3115019175
 30
0.0
 40
1.650999999999994
  0
CIRCLE
  5
87
330
1F
100
AcDbEntity
  8
0
  6
Continuous
 62
     7
370
    15
100
AcDbCircle
 10
77.7271510422
 20
-77.3115019175
 30
0.0
 40
1.650999999999996
  0
CIRCLE
  5
88
330
1F
100
AcDbEntity
  8
0
  6
Continuous
 62
     7
370
    15
100
AcDbCircle
 10
56.7721510422
 20
-42.0055019175
 30
0.0
 40
2.032000000000004
  0
CIRCLE
  5
89
330
1F
100
AcDbEntity
  8
0
  6
Continuous
 62
     7
370
    15
100
AcDbCircle
 10
56.7721510422
 20
-72.2315019175
 30
0.0
 40
2.031999999999996
  0
CIRCLE
  5
8A
330
1F
100
AcDbEntity
  8
0
  6
Continuous
 62
     7
370
    15
100
AcDbCircle
 10
32.6421510422
 20
-42.0055019175
 30
0.0
 40
2.032000000000004
  0
CIRCLE
  5
8B
330
1F
100
AcDbEntity
  8
0
  6
Continuous
 62
     7
370
    15
100
AcDbCircle
 10
32.6421510422
 20
-72.2315019175
 30
0.0
 40
2.031999999999982
  0
CIRCLE
  5
92
330
1F
100
AcDbEntity
  8
0
  6
Continuous
 62
     7
370
    15
100
AcDbCircle
 10
203.2197797252
 20
101.3519071265
 30
0.0
 40
1.650999999999982
  0
CIRCLE
  5
93
330
1F
100
AcDbEntity
  8
0
  6
Continuous
 62
     7
370
    15
100
AcDbCircle
 10
137.1797797252
 20
101.3519071265
 30
0.0
 40
1.65100000000001
  0
CIRCLE
  5
94
330
1F
100
AcDbEntity
  8
0
  6
Continuous
 62
     7
370
    15
100
AcDbCircle
 10
203.2197797252
 20
75.9519071265
 30
0.0
 40
1.650999999999982
  0
CIRCLE
  5
95
330
1F
100
AcDbEntity
  8
0
  6
Continuous
 62
     7
370
    15
100
AcDbCircle
 10
137.1797797252
 20
75.9519071265
 30
0.0
 40
1.65100000000001
  0
CIRCLE
  5
96
330
1F
100
AcDbEntity
  8
0
  6
Continuous
 62
     7
370
    15
100
AcDbCircle
 10
83.1997797252
 20
33.7933071265
 30
0.0
 40
1.774999999999991
  0
CIRCLE
  5
97
330
1F
100
AcDbEntity
  8
0
  6
Continuous
 62
     7
370
    15
100
AcDbCircle
 10
70.1997797252
 20
18.7933071265
 30
0.0
 40
1.774999999999977
  0
CIRCLE
  5
98
330
1F
100
AcDbEntity
  8
0
  6
Continuous
 62
     7
370
    15
100
AcDbCircle
 10
96.1997797252
 20
18.7933071265
 30
0.0
 40
1.774999999999991
  0
CIRCLE
  5
99
330
1F
100
AcDbEntity
  8
0
  6
Continuous
 62
     7
370
    15
100
AcDbCircle
 10
83.1997797252
 20
3.7933071265
 30
0.0
 40
1.77500000000002
  0
CIRCLE
  5
9A
330
1F
100
AcDbEntity
  8
0
  6
Continuous
 62
     7
370
    15
100
AcDbCircle
 10
257.1997797252
 20
33.7933071265
 30
0.0
 40
1.775000000000034
  0
CIRCLE
  5
9B
330
1F
100
AcDbEntity
  8
0
  6
Continuous
 62
     7
370
    15
100
AcDbCircle
 10
270.1997797252
 20
18.7933071265
 30
0.0
 40
1.774999999999977
  0
CIRCLE
  5
9C
330
1F
100
AcDbEntity
  8
0
  6
Continuous
 62
     7
370
    15
100
AcDbCircle
 10
244.1997797252
 20
18.7933071265
 30
0.0
 40
1.775000000000034
  0
CIRCLE
  5
9D
330
1F
100
AcDbEntity
  8
0
  6
Continuous
 62
     7
370
    15
100
AcDbCircle
 10
257.1997797252
 20
3.7933071265
 30
0.0
 40
1.775000000000034
  0
CIRCLE
  5
B6
330
1F
100
AcDbEntity
  8
0
  6
Continuous
 62
     7
370
    15
100
AcDbCircle
 10
237.7580268796
 20
-40.8266928735
 30
0.0
 40
1.549999999999983
  0
CIRCLE
  5
B7
330
1F
100
AcDbEntity
  8
0
  6
Continuous
 62
     7
370
    15
100
AcDbCircle
 10
237.7580268796
 20
-70.9566928735
 30
0.0
 40
1.549999999999983
  0
CIRCLE
  5
B8
330
1F
100
AcDbEntity
  8
0
  6
Continuous
 62
     7
370
    15
100
AcDbCircle
 10
102.6415325708
 20
-40.8266928735
 30
0.0
 40
1.549999999999997
  0
CIRCLE
  5
B9
330
1F
100
AcDbEntity
  8
0
  6
Continuous
 62
     7
370
    15
100
AcDbCircle
 10
102.6415325708
 20
-70.9566928735
 30
0.0
 40
1.549999999999997
  0
CIRCLE
  5
BA
330
1F
100
AcDbEntity
  8
0
  6
Continuous
 62
     7
370
    15
100
AcDbCircle
 10
265.9497797252
 20
-12.8939693745
 30
0.0
 40
7.499999999999943
  0
CIRCLE
  5
BB
330
1F
100
AcDbEntity
  8
0
  6
Continuous
 62
     7
370
    15
100
AcDbCircle
 10
74.4497797252
 20
-12.8939693745
 30
0.0
 40
7.5
  0
CIRCLE
  5
BC
330
1F
100
AcDbEntity
  8
0
  6
Continuous
 62
     7
370
    15
100
AcDbCircle
 10
185.1997797252
 20
32.7127366896
 30
0.0
 40
1.549999999999955
  0
CIRCLE
  5
BD
330
1F
100
AcDbEntity
  8
0
  6
Continuous
 62
     7
370
    15
100
AcDbCircle
 10
155.1997797252
 20
32.7127366896
 30
0.0
 40
1.549999999999983
  0
CIRCLE
  5
BE
330
1F
100
AcDbEntity
  8
0
  6
Continuous
 62
     7
370
    15
100
AcDbCircle
 10
185.1997797252
 20
-62.6472633104
 30
0.0
 40
1.549999999999955
  0
CIRCLE
  5
BF
330
1F
100
AcDbEntity
  8
0
  6
Continuous
 62
     7
370
    15
100
AcDbCircle
 10
155.1997797252
 20
-62.6472633104
 30
0.0
 40
1.55000000000004
  0
CIRCLE
  5
C0
330
1F
100
AcDbEntity
  8
0
  6
Continuous
 62
     7
370
    15
100
AcDbCircle
 10
18.4478528885
 20
91.9100826404
 30
0.0
 40
1.651000000000007
  0
CIRCLE
  5
C1
330
1F
100
AcDbEntity
  8
0
  6
Continuous
 62
     7
370
    15
100
AcDbCircle
 10
84.4878528885
 20
91.9100826404
 30
0.0
 40
1.651000000000025
  0
CIRCLE
  5
C2
330
1F
100
AcDbEntity
  8
0
  6
Continuous
 62
     7
370
    15
100
AcDbCircle
 10
18.4478528885
 20
66.5100826404
 30
0.0
 40
1.650999999999996
  0
CIRCLE
  5
C3
330
1F
100
AcDbEntity
  8
0
  6
Continuous
 62
     7
370
    15
100
AcDbCircle
 10
84.4878528885
 20
66.5100826404
 30
0.0
 40
1.65100000000001
  0
CIRCLE
  5
C4
330
1F
100
AcDbEntity
  8
0
  6
Continuous
 62
     7
370
    15
100
AcDbCircle
 10
63.5328528885
 20
101.8160826404
 30
0.0
 40
2.031999999999982
  0
CIRCLE
  5
C5
330
1F
100
AcDbEntity
  8
0
  6
Continuous
 62
     7
370
    15
100
AcDbCircle
 10
63.5328528885
 20
71.5900826404
 30
0.0
 40
2.031999999999982
  0
CIRCLE
  5
C6
330
1F
100
AcDbEntity
  8
0
  6
Continuous
 62
     7
370
    15
100
AcDbCircle
 10
39.4028528885
 20
101.8160826404
 30
0.0
 40
2.031999999999996
  0
CIRCLE
  5
C7
330
1F
100
AcDbEntity
  8
0
  6
Continuous
 62
     7
370
    15
100
AcDbCircle
 10
39.4028528885
 20
71.5900826404
 30
0.0
 40
2.031999999999996
  0
LINE
  5
CE
330
1F
100
AcDbEntity
  8
0
  6
Continuous
 62
     7
370
    15
100
AcDbLine
 10
-29.1464420989
 20
110.8159740438
 30
0.0
 11
-49.1464420989
 21
110.8159740438
 31
0.0
  0
LINE
  5
CF
330
1F
100
AcDbEntity
  8
0
  6
Continuous
 62
     7
370
    15
100
AcDbLine
 10
-29.1464420989
 20
-89.1840259562
 30
0.0
 11
-29.1464420989
 21
110.8159740438
 31
0.0
  0
LINE
  5
D0
330
1F
100
AcDbEntity
  8
0
  6
Continuous
 62
     7
370
    15
100
AcDbLine
 10
-49.1464420989
 20
-89.1840259562
 30
0.0
 11
-29.1464420989
 21
-89.1840259562
 31
0.0
  0
LINE
  5
D1
330
1F
100
AcDbEntity
  8
0
  6
Continuous
 62
     7
370
    15
100
AcDbLine
 10
-49.1464420989
 20
110.8159740438
 30
0.0
 11
-49.1464420989
 21
-89.1840259562
 31
0.0
  0
LINE
  5
D2
330
1F
100
AcDbEntity
  8
0
  6
Continuous
 62
     7
370
    15
100
AcDbLine
 10
-22.1629788412
 20
-89.7293680516
 30
0.0
 11
-2.1629788412
 21
-89.7293680516
 31
0.0
  0
LINE
  5
D3
330
1F
100
AcDbEntity
  8
0
  6
Continuous
 62
     7
370
    15
100
AcDbLine
 10
-22.1629788412
 20
110.2706319484
 30
0.0
 11
-22.1629788412
 21
-89.7293680516
 31
0.0
  0
LINE
  5
D4
330
1F
100
AcDbEntity
  8
0
  6
Continuous
 62
     7
370
    15
100
AcDbLine
 10
-2.1629788412
 20
110.2706319484
 30
0.0
 11
-22.1629788412
 21
110.2706319484
 31
0.0
  0
LINE
  5
D5
330
1F
100
AcDbEntity
  8
0
  6
Continuous
 62
     7
370
    15
100
AcDbLine
 10
-2.1629788412
 20
-89.7293680516
 30
0.0
 11
-2.1629788412
 21
110.2706319484
 31
0.0
  0
LINE
  5
D6
330
1F
100
AcDbEntity
  8
0
  6
Continuous
 62
     7
370
    15
100
AcDbLine
 10
-56.5657319373
 20
110.3135061168
 30
0.0
 11
-71.5657319373
 21
110.3135061168
 31
0.0
  0
LINE
  5
D7
330
1F
100
AcDbEntity
  8
0
  6
Continuous
 62
     7
370
    15
100
AcDbLine
 10
-71.5657319373
 20
110.3135061168
 30
0.0
 11
-71.5657319373
 21
-58.0984938832
 31
0.0
  0
LINE
  5
D8
330
1F
100
AcDbEntity
  8
0
  6
Continuous
 62
     7
370
    15
100
AcDbLine
 10
-56.5657319373
 20
-58.0984938832
 30
0.0
 11
-56.5657319373
 21
110.3135061168
 31
0.0
  0
LINE
  5
D9
330
1F
100
AcDbEntity
  8
0
  6
Continuous
 62
     7
370
    15
100
AcDbLine
 10
-71.5657319373
 20
-58.0984938832
 30
0.0
 11
-56.5657319373
 21
-58.0984938832
 31
0.0
  0
LINE
  5
DA
330
1F
100
AcDbEntity
  8
0
  6
Continuous
 62
     7
370
    15
100
AcDbLine
 10
-94.4224230101
 20
109.9014712743
 30
0.0
 11
-94.4224230101
 21
-58.5105287257
 31
0.0
  0
LINE
  5
DB
330
1F
100
AcDbEntity
  8
0
  6
Continuous
 62
     7
370
    15
100
AcDbLine
 10
-79.4224230101
 20
109.9014712743
 30
0.0
 11
-94.4224230101
 21
109.9014712743
 31
0.0
  0
LINE
  5
DC
330
1F
100
AcDbEntity
  8
0
  6
Continuous
 62
     7
370
    15
100
AcDbLine
 10
-79.4224230101
 20
-58.5105287257
 30
0.0
 11
-79.4224230101
 21
109.9014712743
 31
0.0
  0
LINE
  5
DD
330
1F
100
AcDbEntity
  8
0
  6
Continuous
 62
     7
370
    15
100
AcDbLine
 10
-94.4224230101
 20
-58.5105287257
 30
0.0
 11
-79.4224230101
 21
-58.5105287257
 31
0.0
  0
LINE
  5
DE
330
1F
100
AcDbEntity
  8
0
  6
Continuous
 62
     7
370
    15
100
AcDbLine
 10
-120.8698793562
 20
-58.6398485134
 30
0.0
 11
-120.8698793562
 21
109.7721514866
 31
0.0
  0
LINE
  5
DF
330
1F
100
AcDbEntity
  8
0
  6
Continuous
 62
     7
370
    15
100
AcDbLine
 10
-135.8698793562
 20
-58.6398485134
 30
0.0
 11
-120.8698793562
 21
-58.6398485134
 31
0.0
  0
LINE
  5
E0
330
1F
100
AcDbEntity
  8
0
  6
Continuous
 62
     7
370
    15
100
AcDbLine
 10
-135.8698793562
 20
109.7721514866
 30
0.0
 11
-135.8698793562
 21
-58.6398485134
 31
0.0
  0
LINE
  5
E1
330
1F
100
AcDbEntity
  8
0
  6
Continuous
 62
     7
370
    15
100
AcDbLine
 10
-120.8698793562
 20
109.7721514866
 30
0.0
 11
-135.8698793562
 21
109.7721514866
 31
0.0
  0
LINE
  5
E2
330
1F
100
AcDbEntity
  8
0
  6
Continuous
 62
     7
370
    15
100
AcDbLine
 10
-99.9639389675
 20
109.7721514866
 30
0.0
 11
-114.9639389675
 21
109.7721514866
 31
0.0
  0
LINE
  5
E3
330
1F
100
AcDbEntity
  8
0
  6
Continuous
 62
     7
370
    15
100
AcDbLine
 10
-114.9639389675
 20
109.7721514866
 30
0.0
 11
-114.9639389675
 21
-58.6398485134
 31
0.0
  0
LINE
  5
E4
330
1F
100
AcDbEntity
  8
0
  6
Continuous
 62
     7
370
    15
100
AcDbLine
 10
-114.9639389675
 20
-58.6398485134
 30
0.0
 11
-99.9639389675
 21
-58.6398485134
 31
0.0
  0
LINE
  5
E5
330
1F
100
AcDbEntity
  8
0
  6
Continuous
 62
     7
370
    15
100
AcDbLine
 10
-99.9639389675
 20
-58.6398485134
 30
0.0
 11
-99.9639389675
 21
109.7721514866
 31
0.0
  0
LINE
  5
E6
330
1F
100
AcDbEntity
  8
0
  6
Continuous
 62
     7
370
    15
100
AcDbLine
 10
28.1971510422
 20
-36.9255019175
 30
0.0
 11
61.2171510422
 21
-36.9255019175
 31
0.0
  0
LINE
  5
E7
330
1F
100
AcDbEntity
  8
0
  6
Continuous
 62
     7
370
    15
100
AcDbLine
 10
61.2171510422
 20
-36.9255019175
 30
0.0
 11
84.3311510422
 21
-43.553334764
 31
0.0
  0
LINE
  5
E8
330
1F
100
AcDbEntity
  8
0
  6
Continuous
 62
     7
370
    15
100
AcDbLine
 10
84.3311510422
 20
-90.0115019175
 30
0.0
 11
84.3311510422
 21
-43.553334764
 31
0.0
  0
LINE
  5
E9
330
1F
100
AcDbEntity
  8
0
  6
Continuous
 62
     7
370
    15
100
AcDbLine
 10
5.0831510422
 20
-43.553334764
 30
0.0
 11
28.1971510422
 21
-36.9255019175
 31
0.0
  0
LINE
  5
EA
330
1F
100
AcDbEntity
  8
0
  6
Continuous
 62
     7
370
    15
100
AcDbLine
 10
5.0831510422
 20
-90.0115019175
 30
0.0
 11
84.3311510422
 21
-90.0115019175
 31
0.0
  0
LINE
  5
EB
330
1F
100
AcDbEntity
  8
0
  6
Continuous
 62
     7
370
    15
100
AcDbLine
 10
5.0831510422
 20
-43.553334764
 30
0.0
 11
5.0831510422
 21
-90.0115019175
 31
0.0
  0
LINE
  5
EC
330
1F
100
AcDbEntity
  8
0
  6
Continuous
 62
     7
370
    15
100
AcDbLine
 10
249.1997797252
 20
-30.1867365536
 30
0.0
 11
249.1997797252
 21
-91.4566928735
 31
0.0
  0
LINE
  5
ED
330
1F
100
AcDbEntity
  8
0
  6
Continuous
 62
     7
370
    15
100
AcDbLine
 10
94.1997797252
 20
-94.4566928735
 30
0.0
 11
246.1997797252
 21
-94.4566928735
 31
0.0
  0
LINE
  5
EE
330
1F
100
AcDbEntity
  8
0
  6
Continuous
 62
     7
370
    15
100
AcDbLine
 10
91.1997797252
 20
-91.4566928735
 30
0.0
 11
91.1997797252
 21
-30.1867365536
 31
0.0
  0
LINE
  5
EF
330
1F
100
AcDbEntity
  8
0
  6
Continuous
 62
     7
370
    15
100
AcDbLine
 10
88.1997797252
 20
-27.1867365536
 30
0.0
 11
60.6997797252
 21
-27.1867365536
 31
0.0
  0
LINE
  5
F0
330
1F
100
AcDbEntity
  8
0
  6
Continuous
 62
     7
370
    15
100
AcDbLine
 10
57.6997797252
 20
3.9683071265
 30
0.0
 11
57.6997797252
 21
-24.1867365536
 31
0.0
  0
LINE
  5
F1
330
1F
100
AcDbEntity
  8
0
  6
Continuous
 62
     7
370
    15
100
AcDbLine
 10
61.7695011886
 20
33.9537151858
 30
0.0
 11
99.8153169497
 21
49.3252225365
 31
0.0
  0
LINE
  5
F2
330
1F
100
AcDbEntity
  8
0
  6
Continuous
 62
     7
370
    15
100
AcDbLine
 10
99.8153169497
 20
49.3252225365
 30
0.0
 11
122.6910411294
 21
105.944626716
 31
0.0
  0
LINE
  5
F3
330
1F
100
AcDbEntity
  8
0
  6
Continuous
 62
     7
370
    15
100
AcDbLine
 10
144.7997797252
 20
113.5634256309
 30
0.0
 11
144.7997797252
 21
91.0649071265
 31
0.0
  0
LINE
  5
F4
330
1F
100
AcDbEntity
  8
0
  6
Continuous
 62
     7
370
    15
100
AcDbLine
 10
195.5997797252
 20
91.0649071265
 30
0.0
 11
195.5997797252
 21
113.5634256309
 31
0.0
  0
LINE
  5
F5
330
1F
100
AcDbEntity
  8
0
  6
Continuous
 62
     7
370
    15
100
AcDbLine
 10
217.7085183211
 20
105.944626716
 30
0.0
 11
240.5842425008
 21
49.3252225365
 31
0.0
  0
LINE
  5
F6
330
1F
100
AcDbEntity
  8
0
  6
Continuous
 62
     7
370
    15
100
AcDbLine
 10
240.5842425008
 20
49.3252225365
 30
0.0
 11
278.6300582618
 21
33.9537151858
 31
0.0
  0
LINE
  5
F7
330
1F
100
AcDbEntity
  8
0
  6
Continuous
 62
     7
370
    15
100
AcDbLine
 10
282.6997797252
 20
-24.1867365536
 30
0.0
 11
282.6997797252
 21
3.9683071265
 31
0.0
  0
LINE
  5
F8
330
1F
100
AcDbEntity
  8
0
  6
Continuous
 62
     7
370
    15
100
AcDbLine
 10
279.6997797252
 20
-27.1867365536
 30
0.0
 11
252.1997797252
 21
-27.1867365536
 31
0.0
  0
LINE
  5
F9
330
1F
100
AcDbEntity
  8
0
  6
Continuous
 62
     7
370
    15
100
AcDbLine
 10
34.9578528885
 20
106.8960826404
 30
0.0
 11
67.9778528885
 21
106.8960826404
 31
0.0
  0
LINE
  5
FA
330
1F
100
AcDbEntity
  8
0
  6
Continuous
 62
     7
370
    15
100
AcDbLine
 10
67.9778528885
 20
106.8960826404
 30
0.0
 11
91.0918528885
 21
100.2682497939
 31
0.0
  0
LINE
  5
FB
330
1F
100
AcDbEntity
  8
0
  6
Continuous
 62
     7
370
    15
100
AcDbLine
 10
91.0918528885
 20
53.8100826404
 30
0.0
 11
91.0918528885
 21
100.2682497939
 31
0.0
  0
LINE
  5
FC
330
1F
100
AcDbEntity
  8
0
  6
Continuous
 62
     7
370
    15
100
AcDbLine
 10
11.8438528885
 20
53.8100826404
 30
0.0
 11
91.0918528885
 21
53.8100826404
 31
0.0
  0
LINE
  5
FD
330
1F
100
AcDbEntity
  8
0
  6
Continuous
 62
     7
370
    15
100
AcDbLine
 10
11.8438528885
 20
100.2682497939
 30
0.0
 11
11.8438528885
 21
53.8100826404
 31
0.0
  0
LINE
  5
FE
330
1F
100
AcDbEntity
  8
0
  6
Continuous
 62
     7
370
    15
100
AcDbLine
 10
11.8438528885
 20
100.2682497939
 30
0.0
 11
34.9578528885
 21
106.8960826404
 31
0.0
  0
ARC
  5
FF
330
1F
100
AcDbEntity
  8
0
  6
Continuous
 62
     7
370
    15
100
AcDbCircle
 10
252.1997797252
 20
-30.1867365536
 30
0.0
 40
3.0
100
AcDbArc
 50
90.0
 51
180.0
  0
ARC
  5
100
330
1F
100
AcDbEntity
  8
0
  6
Continuous
 62
     7
370
    15
100
AcDbCircle
 10
246.1997797252
 20
-91.4566928735
 30
0.0
 40
3.000000000000014
100
AcDbArc
 50
270.0
 51
0.0
  0
ARC
  5
101
330
1F
100
AcDbEntity
  8
0
  6
Continuous
 62
     7
370
    15
100
AcDbCircle
 10
94.1997797252
 20
-91.4566928735
 30
0.0
 40
3.000000000000028
100
AcDbArc
 50
180.0
 51
270.0
  0
ARC
  5
102
330
1F
100
AcDbEntity
  8
0
  6
Continuous
 62
     7
370
    15
100
AcDbCircle
 10
88.1997797252
 20
-30.1867365536
 30
0.0
 40
3.000000000000046
100
AcDbArc
 50
0.0
 51
90.0
  0
ARC
  5
103
330
1F
100
AcDbEntity
  8
0
  6
Continuous
 62
     7
370
    15
100
AcDbCircle
 10
60.6997797252
 20
-24.1867365536
 30
0.0
 40
3.000000000000004
100
AcDbArc
 50
180.0
 51
270.0
  0
ARC
  5
104
330
1F
100
AcDbEntity
  8
0
  6
Continuous
 62
     7
370
    15
100
AcDbCircle
 10
170.1997797252
 20
3.9683071265
 30
0.0
 40
112.4999999999985
100
AcDbArc
 50
164.5417007358
 51
180.0
  0
ARC
  5
105
330
1F
100
AcDbEntity
  8
0
  6
Continuous
 62
     7
370
    15
100
AcDbCircle
 10
170.1997797252
 20
3.9683071265
 30
0.0
 40
112.5000000000045
100
AcDbArc
 50
103.0486184985
 51
114.9798750827
  0
ARC
  5
106
330
1F
100
AcDbEntity
  8
0
  6
Continuous
 62
     7
370
    15
100
AcDbCircle
 10
170.1997797252
 20
91.0649071265
 30
0.0
 40
25.40000000000001
100
AcDbArc
 50
180.0
 51
0.0
  0
ARC
  5
107
330
1F
100
AcDbEntity
  8
0
  6
Continuous
 62
     7
370
    15
100
AcDbCircle
 10
170.1997797252
 20
3.9683071265
 30
0.0
 40
112.5000000000066
100
AcDbArc
 50
65.0201249173
 51
76.9513815015
  0
ARC
  5
108
330
1F
100
AcDbEntity
  8
0
  6
Continuous
 62
     7
370
    15
100
AcDbCircle
 10
170.1997797252
 20
3.9683071265
 30
0.0
 40
112.5000000000002
100
AcDbArc
 50
0.0
 51
15.4582992642
  0
ARC
  5
109
330
1F
100
AcDbEntity
  8
0
  6
Continuous
 62
     7
370
    15
100
AcDbCircle
 10
279.6997797252
 20
-24.1867365536
 30
0.0
 40
3.0
100
AcDbArc
 50
270.0
 51
0.0
  0
CIRCLE
  5
10E
330
1B
100
AcDbEntity
 67
     1
  8
0
  6
Continuous
 62
     7
370
    15
100
AcDbCircle
 10
-39.1464420989
 20
-84.1840259562
 30
0.0
 40
1.749999999999993
  0
CIRCLE
  5
10F
330
1B
100
AcDbEntity
 67
     1
  8
0
  6
Continuous
 62
     7
370
    15
100
AcDbCircle
 10
-39.1464420989
 20
-74.1840259562
 30
0.0
 40
1.750000000000014
  0
CIRCLE
  5
110
330
1B
100
AcDbEntity
 67
     1
  8
0
  6
Continuous
 62
     7
370
    15
100
AcDbCircle
 10
-39.1464420989
 20
100.8159740438
 30
0.0
 40
1.750000000000014
  0
CIRCLE
  5
111
330
1B
100
AcDbEntity
 67
     1
  8
0
  6
Continuous
 62
     7
370
    15
100
AcDbCircle
 10
-39.1464420989
 20
25.8159740438
 30
0.0
 40
1.750000000000007
  0
CIRCLE
  5
112
330
1B
100
AcDbEntity
 67
     1
  8
0
  6
Continuous
 62
     7
370
    15
100
AcDbCircle
 10
-39.1464420989
 20
90.8159740438
 30
0.0
 40
1.749999999999993
  0
CIRCLE
  5
113
330
1B
100
AcDbEntity
 67
     1
  8
0
  6
Continuous
 62
     7
370
    15
100
AcDbCircle
 10
-39.1464420989
 20
10.8159740438
 30
0.0
 40
1.750000000000007
  0
CIRCLE
  5
116
330
1B
100
AcDbEntity
 67
     1
  8
0
  6
Continuous
 62
     7
370
    15
100
AcDbCircle
 10
-12.1629788412
 20
-84.7293680516
 30
0.0
 40
1.750000000000016
  0
CIRCLE
  5
119
330
1B
100
AcDbEntity
 67
     1
  8
0
  6
Continuous
 62
     7
370
    15
100
AcDbCircle
 10
-12.1629788412
 20
25.2706319484
 30
0.0
 40
1.750000000000002
  0
CIRCLE
  5
11A
330
1B
100
AcDbEntity
 67
     1
  8
0
  6
Continuous
 62
     7
370
    15
100
AcDbCircle
 10
-12.1629788412
 20
10.2706319484
 30
0.0
 40
1.750000000000002
  0
CIRCLE
  5
11B
330
1B
100
AcDbEntity
 67
     1
  8
0
  6
Continuous
 62
     7
370
    15
100
AcDbCircle
 10
-12.1629788412
 20
100.2706319484
 30
0.0
 40
1.750000000000021
  0
CIRCLE
  5
11C
330
1B
100
AcDbEntity
 67
     1
  8
0
  6
Continuous
 62
     7
370
    15
100
AcDbCircle
 10
-12.1629788412
 20
90.2706319484
 30
0.0
 40
1.750000000000012
  0
CIRCLE
  5
11D
330
1B
100
AcDbEntity
 67
     1
  8
0
  6
Continuous
 62
     7
370
    15
100
AcDbCircle
 10
-12.1629788412
 20
-74.7293680516
 30
0.0
 40
1.750000000000002
  0
CIRCLE
  5
11F
330
1B
100
AcDbEntity
 67
     1
  8
0
  6
Continuous
 62
     7
370
    15
100
AcDbCircle
 10
-64.0657319373
 20
98.3135061168
 30
0.0
 40
1.750000000000014
  0
CIRCLE
  5
120
330
1B
100
AcDbEntity
 67
     1
  8
0
  6
Continuous
 62
     7
370
    15
100
AcDbCircle
 10
-64.0657319373
 20
88.3135061168
 30
0.0
 40
1.750000000000028
  0
CIRCLE
  5
121
330
1B
100
AcDbEntity
 67
     1
  8
0
  6
Continuous
 62
     7
370
    15
100
AcDbCircle
 10
-64.0657319373
 20
-36.0984938832
 30
0.0
 40
1.750000000000014
  0
CIRCLE
  5
122
330
1B
100
AcDbEntity
 67
     1
  8
0
  6
Continuous
 62
     7
370
    15
100
AcDbCircle
 10
-64.0657319373
 20
-46.0984938832
 30
0.0
 40
1.750000000000014
  0
CIRCLE
  5
123
330
1B
100
AcDbEntity
 67
     1
  8
0
  6
Continuous
 62
     7
370
    15
100
AcDbCircle
 10
-64.0657319373
 20
43.6075061168
 30
0.0
 40
1.75
  0
CIRCLE
  5
124
330
1B
100
AcDbEntity
 67
     1
  8
0
  6
Continuous
 62
     7
370
    15
100
AcDbCircle
 10
-64.0657319373
 20
8.6075061168
 30
0.0
 40
1.75
  0
CIRCLE
  5
125
330
1B
100
AcDbEntity
 67
     1
  8
0
  6
Continuous
 62
     7
370
    15
100
AcDbCircle
 10
-64.0657319373
 20
26.1075061168
 30
0.0
 40
1.75
  0
CIRCLE
  5
12B
330
1B
100
AcDbEntity
 67
     1
  8
0
  6
Continuous
 62
     7
370
    15
100
AcDbCircle
 10
-86.9224230101
 20
97.9014712743
 30
0.0
 40
1.750000000000028
  0
CIRCLE
  5
12C
330
1B
100
AcDbEntity
 67
     1
  8
0
  6
Continuous
 62
     7
370
    15
100
AcDbCircle
 10
-86.9224230101
 20
87.9014712743
 30
0.0
 40
1.75
  0
CIRCLE
  5
12D
330
1B
100
AcDbEntity
 67
     1
  8
0
  6
Continuous
 62
     7
370
    15
100
AcDbCircle
 10
-86.9224230101
 20
-36.5105287257
 30
0.0
 40
1.750000000000028
  0
CIRCLE
  5
12E
330
1B
100
AcDbEntity
 67
     1
  8
0
  6
Continuous
 62
     7
370
    15
100
AcDbCircle
 10
-86.9224230101
 20
-46.5105287257
 30
0.0
 40
1.750000000000028
  0
CIRCLE
  5
12F
330
1B
100
AcDbEntity
 67
     1
  8
0
  6
Continuous
 62
     7
370
    15
100
AcDbCircle
 10
-86.9224230101
 20
43.1954712743
 30
0.0
 40
1.75
  0
CIRCLE
  5
130
330
1B
100
AcDbEntity
 67
     1
  8
0
  6
Continuous
 62
     7
370
    15
100
AcDbCircle
 10
-86.9224230101
 20
8.1954712743
 30
0.0
 40
1.75
  0
CIRCLE
  5
131
330
1B
100
AcDbEntity
 67
     1
  8
0
  6
Continuous
 62
     7
370
    15
100
AcDbCircle
 10
-86.9224230101
 20
25.6954712743
 30
0.0
 40
1.75
  0
CIRCLE
  5
138
330
1B
100
AcDbEntity
 67
     1
  8
0
  6
Continuous
 62
     7
370
    15
100
AcDbCircle
 10
-128.3698793562
 20
97.7721514866
 30
0.0
 40
1.750000000000085
  0
CIRCLE
  5
139
330
1B
100
AcDbEntity
 67
     1
  8
0
  6
Continuous
 62
     7
370
    15
100
AcDbCircle
 10
-128.3698793562
 20
87.7721514866
 30
0.0
 40
1.750000000000028
  0
CIRCLE
  5
13A
330
1B
100
AcDbEntity
 67
     1
  8
0
  6
Continuous
 62
     7
370
    15
100
AcDbCircle
 10
-128.3698793562
 20
-36.6398485134
 30
0.0
 40
1.750000000000028
  0
CIRCLE
  5
13B
330
1B
100
AcDbEntity
 67
     1
  8
0
  6
Continuous
 62
     7
370
    15
100
AcDbCircle
 10
-128.3698793562
 20
-46.6398485134
 30
0.0
 40
1.750000000000028
  0
CIRCLE
  5
13C
330
1B
100
AcDbEntity
 67
     1
  8
0
  6
Continuous
 62
     7
370
    15
100
AcDbCircle
 10
-128.3698793562
 20
44.5661514866
 30
0.0
 40
1.75
  0
CIRCLE
  5
13D
330
1B
100
AcDbEntity
 67
     1
  8
0
  6
Continuous
 62
     7
370
    15
100
AcDbCircle
 10
-128.3698793562
 20
6.5661514866
 30
0.0
 40
1.749999999999972
  0
CIRCLE
  5
13E
330
1B
100
AcDbEntity
 67
     1
  8
0
  6
Continuous
 62
     7
370
    15
100
AcDbCircle
 10
-128.3698793562
 20
25.5661514866
 30
0.0
 40
1.75
  0
CIRCLE
  5
140
330
1B
100
AcDbEntity
 67
     1
  8
0
  6
Continuous
 62
     7
370
    15
100
AcDbCircle
 10
-107.4639389675
 20
97.7721514866
 30
0.0
 40
1.750000000000028
  0
CIRCLE
  5
141
330
1B
100
AcDbEntity
 67
     1
  8
0
  6
Continuous
 62
     7
370
    15
100
AcDbCircle
 10
-107.4639389675
 20
87.7721514866
 30
0.0
 40
1.750000000000014
  0
CIRCLE
  5
142
330
1B
100
AcDbEntity
 67
     1
  8
0
  6
Continuous
 62
     7
370
    15
100
AcDbCircle
 10
-107.4639389675
 20
-36.6398485134
 30
0.0
 40
1.750000000000014
  0
CIRCLE
  5
143
330
1B
100
AcDbEntity
 67
     1
  8
0
  6
Continuous
 62
     7
370
    15
100
AcDbCircle
 10
-107.4639389675
 20
-46.6398485134
 30
0.0
 40
1.750000000000014
  0
CIRCLE
  5
144
330
1B
100
AcDbEntity
 67
     1
  8
0
  6
Continuous
 62
     7
370
    15
100
AcDbCircle
 10
-107.4639389675
 20
44.5661514866
 30
0.0
 40
1.75
  0
CIRCLE
  5
145
330
1B
100
AcDbEntity
 67
     1
  8
0
  6
Continuous
 62
     7
370
    15
100
AcDbCircle
 10
-107.4639389675
 20
6.5661514866
 30
0.0
 40
1.75
  0
CIRCLE
  5
146
330
1B
100
AcDbEntity
 67
     1
  8
0
  6
Continuous
 62
     7
370
    15
100
AcDbCircle
 10
-107.4639389675
 20
25.5661514866
 30
0.0
 40
1.75
  0
CIRCLE
  5
14A
330
1B
100
AcDbEntity
 67
     1
  8
0
  6
Continuous
 62
     7
370
    15
100
AcDbCircle
 10
11.6871510422
 20
-51.9115019175
 30
0.0
 40
1.650999999999994
  0
CIRCLE
  5
14B
330
1B
100
AcDbEntity
 67
     1
  8
0
  6
Continuous
 62
     7
370
    15
100
AcDbCircle
 10
77.7271510422
 20
-51.9115019175
 30
0.0
 40
1.650999999999982
  0
CIRCLE
  5
14C
330
1B
100
AcDbEntity
 67
     1
  8
0
  6
Continuous
 62
     7
370
    15
100
AcDbCircle
 10
11.6871510422
 20
-77.3115019175
 30
0.0
 40
1.650999999999994
  0
CIRCLE
  5
14D
330
1B
100
AcDbEntity
 67
     1
  8
0
  6
Continuous
 62
     7
370
    15
100
AcDbCircle
 10
77.7271510422
 20
-77.3115019175
 30
0.0
 40
1.650999999999996
  0
CIRCLE
  5
14E
330
1B
100
AcDbEntity
 67
     1
  8
0
  6
Continuous
 62
     7
370
    15
100
AcDbCircle
 10
56.7721510422
 20
-42.0055019175
 30
0.0
 40
2.032000000000004
  0
CIRCLE
  5
14F
330
1B
100
AcDbEntity
 67
     1
  8
0
  6
Continuous
 62
     7
370
    15
100
AcDbCircle
 10
56.7721510422
 20
-72.2315019175
 30
0.0
 40
2.031999999999996
  0
CIRCLE
  5
150
330
1B
100
AcDbEntity
 67
     1
  8
0
  6
Continuous
 62
     7
370
    15
100
AcDbCircle
 10
32.6421510422
 20
-42.0055019175
 30
0.0
 40
2.032000000000004
  0
CIRCLE
  5
151
330
1B
100
AcDbEntity
 67
     1
  8
0
  6
Continuous
 62
     7
370
    15
100
AcDbCircle
 10
32.6421510422
 20
-72.2315019175
 30
0.0
 40
2.031999999999982
  0
CIRCLE
  5
158
330
1B
100
AcDbEntity
 67
     1
  8
0
  6
Continuous
 62
     7
370
    15
100
AcDbCircle
 10
203.2197797252
 20
101.3519071265
 30
0.0
 40
1.650999999999982
  0
CIRCLE
  5
159
330
1B
100
AcDbEntity
 67
     1
  8
0
  6
Continuous
 62
     7
370
    15
100
AcDbCircle
 10
137.1797797252
 20
101.3519071265
 30
0.0
 40
1.65100000000001
  0
CIRCLE
  5
15A
330
1B
100
AcDbEntity
 67
     1
  8
0
  6
Continuous
 62
     7
370
    15
100
AcDbCircle
 10
203.2197797252
 20
75.9519071265
 30
0.0
 40
1.650999999999982
  0
CIRCLE
  5
15B
330
1B
100
AcDbEntity
 67
     1
  8
0
  6
Continuous
 62
     7
370
    15
100
AcDbCircle
 10
137.1797797252
 20
75.9519071265
 30
0.0
 40
1.65100000000001
  0
CIRCLE
  5
15C
330
1B
100
AcDbEntity
 67
     1
  8
0
  6
Continuous
 62
     7
370
    15
100
AcDbCircle
 10
83.1997797252
 20
33.7933071265
 30
0.0
 40
1.774999999999991
  0
CIRCLE
  5
15D
330
1B
100
AcDbEntity
 67
     1
  8
0
  6
Continuous
 62
     7
370
    15
100
AcDbCircle
 10
70.1997797252
 20
18.7933071265
 30
0.0
 40
1.774999999999977
  0
CIRCLE
  5
15E
330
1B
100
AcDbEntity
 67
     1
  8
0
  6
Continuous
 62
     7
370
    15
100
AcDbCircle
 10
96.1997797252
 20
18.7933071265
 30
0.0
 40
1.774999999999991
  0
CIRCLE
  5
15F
330
1B
100
AcDbEntity
 67
     1
  8
0
  6
Continuous
 62
     7
370
    15
100
AcDbCircle
 10
83.1997797252
 20
3.7933071265
 30
0.0
 40
1.77500000000002
  0
CIRCLE
  5
160
330
1B
100
AcDbEntity
 67
     1
  8
0
  6
Continuous
 62
     7
370
    15
100
AcDbCircle
 10
257.1997797252
 20
33.7933071265
 30
0.0
 40
1.775000000000034
  0
CIRCLE
  5
161
330
1B
100
AcDbEntity
 67
     1
  8
0
  6
Continuous
 62
     7
370
    15
100
AcDbCircle
 10
270.1997797252
 20
18.7933071265
 30
0.0
 40
1.774999999999977
  0
CIRCLE
  5
162
330
1B
100
AcDbEntity
 67
     1
  8
0
  6
Continuous
 62
     7
370
    15
100
AcDbCircle
 10
244.1997797252
 20
18.7933071265
 30
0.0
 40
1.775000000000034
  0
CIRCLE
  5
163
330
1B
100
AcDbEntity
 67
     1
  8
0
  6
Continuous
 62
     7
370
    15
100
AcDbCircle
 10
257.1997797252
 20
3.7933071265
 30
0.0
 40
1.775000000000034
  0
CIRCLE
  5
17C
330
1B
100
AcDbEntity
 67
     1
  8
0
  6
Continuous
 62
     7
370
    15
100
AcDbCircle
 10
237.7580268796
 20
-40.8266928735
 30
0.0
 40
1.549999999999983
  0
CIRCLE
  5
17D
330
1B
100
AcDbEntity
 67
     1
  8
0
  6
Continuous
 62
     7
370
    15
100
AcDbCircle
 10
237.7580268796
 20
-70.9566928735
 30
0.0
 40
1.549999999999983
  0
CIRCLE
  5
17E
330
1B
100
AcDbEntity
 67
     1
  8
0
  6
Continuous
 62
     7
370
    15
100
AcDbCircle
 10
102.6415325708
 20
-40.8266928735
 30
0.0
 40
1.549999999999997
  0
CIRCLE
  5
17F
330
1B
100
AcDbEntity
 67
     1
  8
0
  6
Continuous
 62
     7
370
    15
100
AcDbCircle
 10
102.6415325708
 20
-70.9566928735
 30
0.0
 40
1.549999999999997
  0
CIRCLE
  5
180
330
1B
100
AcDbEntity
 67
     1
  8
0
  6
Continuous
 62
     7
370
    15
100
AcDbCircle
 10
265.9497797252
 20
-12.8939693745
 30
0.0
 40
7.499999999999943
  0
CIRCLE
  5
181
330
1B
100
AcDbEntity
 67
     1
  8
0
  6
Continuous
 62
     7
370
    15
100
AcDbCircle
 10
74.4497797252
 20
-12.8939693745
 30
0.0
 40
7.5
  0
CIRCLE
  5
182
330
1B
100
AcDbEntity
 67
     1
  8
0
  6
Continuous
 62
     7
370
    15
100
AcDbCircle
 10
185.1997797252
 20
32.7127366896
 30
0.0
 40
1.549999999999955
  0
CIRCLE
  5
183
330
1B
100
AcDbEntity
 67
     1
  8
0
  6
Continuous
 62
     7
370
    15
100
AcDbCircle
 10
155.1997797252
 20
32.7127366896
 30
0.0
 40
1.549999999999983
  0
CIRCLE
  5
184
330
1B
100
AcDbEntity
 67
     1
  8
0
  6
Continuous
 62
     7
370
    15
100
AcDbCircle
 10
185.1997797252
 20
-62.6472633104
 30
0.0
 40
1.549999999999955
  0
CIRCLE
  5
185
330
1B
100
AcDbEntity
 67
     1
  8
0
  6
Continuous
 62
     7
370
    15
100
AcDbCircle
 10
155.1997797252
 20
-62.6472633104
 30
0.0
 40
1.55000000000004
  0
CIRCLE
  5
186
330
1B
100
AcDbEntity
 67
     1
  8
0
  6
Continuous
 62
     7
370
    15
100
AcDbCircle
 10
18.4478528885
 20
91.9100826404
 30
0.0
 40
1.651000000000007
  0
CIRCLE
  5
187
330
1B
100
AcDbEntity
 67
     1
  8
0
  6
Continuous
 62
     7
370
    15
100
AcDbCircle
 10
84.4878528885
 20
91.9100826404
 30
0.0
 40
1.651000000000025
  0
CIRCLE
  5
188
330
1B
100
AcDbEntity
 67
     1
  8
0
  6
Continuous
 62
     7
370
    15
100
AcDbCircle
 10
18.4478528885
 20
66.5100826404
 30
0.0
 40
1.650999999999996
  0
CIRCLE
  5
189
330
1B
100
AcDbEntity
 67
     1
  8
0
  6
Continuous
 62
     7
370
    15
100
AcDbCircle
 10
84.4878528885
 20
66.5100826404
 30
0.0
 40
1.65100000000001
  0
CIRCLE
  5
18A
330
1B
100
AcDbEntity
 67
     1
  8
0
  6
Continuous
 62
     7
370
    15
100
AcDbCircle
 10
63.5328528885
 20
101.8160826404
 30
0.0
 40
2.031999999999982
  0
CIRCLE
  5
18B
330
1B
100
AcDbEntity
 67
     1
  8
0
  6
Continuous
 62
     7
370
    15
100
AcDbCircle
 10
63.5328528885
 20
71.5900826404
 30
0.0
 40
2.031999999999982
  0
CIRCLE
  5
18C
330
1B
100
AcDbEntity
 67
     1
  8
0
  6
Continuous
 62
     7
370
    15
100
AcDbCircle
 10
39.4028528885
 20
101.8160826404
 30
0.0
 40
2.031999999999996
  0
CIRCLE
  5
18D
330
1B
100
AcDbEntity
 67
     1
  8
0
  6
Continuous
 62
     7
370
    15
100
AcDbCircle
 10
39.4028528885
 20
71.5900826404
 30
0.0
 40
2.031999999999996
  0
LINE
  5
194
330
1B
100
AcDbEntity
 67
     1
  8
0
  6
Continuous
 62
     7
370
    15
100
AcDbLine
 10
-29.1464420989
 20
110.8159740438
 30
0.0
 11
-49.1464420989
 21
110.8159740438
 31
0.0
  0
LINE
  5
195
330
1B
100
AcDbEntity
 67
     1
  8
0
  6
Continuous
 62
     7
370
    15
100
AcDbLine
 10
-29.1464420989
 20
-89.1840259562
 30
0.0
 11
-29.1464420989
 21
110.8159740438
 31
0.0
  0
LINE
  5
196
330
1B
100
AcDbEntity
 67
     1
  8
0
  6
Continuous
 62
     7
370
    15
100
AcDbLine
 10
-49.1464420989
 20
-89.1840259562
 30
0.0
 11
-29.1464420989
 21
-89.1840259562
 31
0.0
  0
LINE
  5
197
330
1B
100
AcDbEntity
 67
     1
  8
0
  6
Continuous
 62
     7
370
    15
100
AcDbLine
 10
-49.1464420989
 20
110.8159740438
 30
0.0
 11
-49.1464420989
 21
-89.1840259562
 31
0.0
  0
LINE
  5
198
330
1B
100
AcDbEntity
 67
     1
  8
0
  6
Continuous
 62
     7
370
    15
100
AcDbLine
 10
-22.1629788412
 20
-89.7293680516
 30
0.0
 11
-2.1629788412
 21
-89.7293680516
 31
0.0
  0
LINE
  5
199
330
1B
100
AcDbEntity
 67
     1
  8
0
  6
Continuous
 62
     7
370
    15
100
AcDbLine
 10
-22.1629788412
 20
110.2706319484
 30
0.0
 11
-22.1629788412
 21
-89.7293680516
 31
0.0
  0
LINE
  5
19A
330
1B
100
AcDbEntity
 67
     1
  8
0
  6
Continuous
 62
     7
370
    15
100
AcDbLine
 10
-2.1629788412
 20
110.2706319484
 30
0.0
 11
-22.1629788412
 21
110.2706319484
 31
0.0
  0
LINE
  5
19B
330
1B
100
AcDbEntity
 67
     1
  8
0
  6
Continuous
 62
     7
370
    15
100
AcDbLine
 10
-2.1629788412
 20
-89.7293680516
 30
0.0
 11
-2.1629788412
 21
110.2706319484
 31
0.0
  0
LINE
  5
19C
330
1B
100
AcDbEntity
 67
     1
  8
0
  6
Continuous
 62
     7
370
    15
100
AcDbLine
 10
-56.5657319373
 20
110.3135061168
 30
0.0
 11
-71.5657319373
 21
110.3135061168
 31
0.0
  0
LINE
  5
19D
330
1B
100
AcDbEntity
 67
     1
  8
0
  6
Continuous
 62
     7
370
    15
100
AcDbLine
 10
-71.5657319373
 20
110.3135061168
 30
0.0
 11
-71.5657319373
 21
-58.0984938832
 31
0.0
  0
LINE
  5
19E
330
1B
100
AcDbEntity
 67
     1
  8
0
  6
Continuous
 62
     7
370
    15
100
AcDbLine
 10
-56.5657319373
 20
-58.0984938832
 30
0.0
 11
-56.5657319373
 21
110.3135061168
 31
0.0
  0
LINE
  5
19F
330
1B
100
AcDbEntity
 67
     1
  8
0
  6
Continuous
 62
     7
370
    15
100
AcDbLine
 10
-71.5657319373
 20
-58.0984938832
 30
0.0
 11
-56.5657319373
 21
-58.0984938832
 31
0.0
  0
LINE
  5
1A0
330
1B
100
AcDbEntity
 67
     1
  8
0
  6
Continuous
 62
     7
370
    15
100
AcDbLine
 10
-94.4224230101
 20
109.9014712743
 30
0.0
 11
-94.4224230101
 21
-58.5105287257
 31
0.0
  0
LINE
  5
1A1
330
1B
100
AcDbEntity
 67
     1
  8
0
  6
Continuous
 62
     7
370
    15
100
AcDbLine
 10
-79.4224230101
 20
109.9014712743
 30
0.0
 11
-94.4224230101
 21
109.9014712743
 31
0.0
  0
LINE
  5
1A2
330
1B
100
AcDbEntity
 67
     1
  8
0
  6
Continuous
 62
     7
370
    15
100
AcDbLine
 10
-79.4224230101
 20
-58.5105287257
 30
0.0
 11
-79.4224230101
 21
109.9014712743
 31
0.0
  0
LINE
  5
1A3
330
1B
100
AcDbEntity
 67
     1
  8
0
  6
Continuous
 62
     7
370
    15
100
AcDbLine
 10
-94.4224230101
 20
-58.5105287257
 30
0.0
 11
-79.4224230101
 21
-58.5105287257
 31
0.0
  0
LINE
  5
1A4
330
1B
100
AcDbEntity
 67
     1
  8
0
  6
Continuous
 62
     7
370
    15
100
AcDbLine
 10
-120.8698793562
 20
-58.6398485134
 30
0.0
 11
-120.8698793562
 21
109.7721514866
 31
0.0
  0
LINE
  5
1A5
330
1B
100
AcDbEntity
 67
     1
  8
0
  6
Continuous
 62
     7
370
    15
100
AcDbLine
 10
-135.8698793562
 20
-58.6398485134
 30
0.0
 11
-120.8698793562
 21
-58.6398485134
 31
0.0
  0
LINE
  5
1A6
330
1B
100
AcDbEntity
 67
     1
  8
0
  6
Continuous
 62
     7
370
    15
100
AcDbLine
 10
-135.8698793562
 20
109.7721514866
 30
0.0
 11
-135.8698793562
 21
-58.6398485134
 31
0.0
  0
LINE
  5
1A7
330
1B
100
AcDbEntity
 67
     1
  8
0
  6
Continuous
 62
     7
370
    15
100
AcDbLine
 10
-120.8698793562
 20
109.7721514866
 30
0.0
 11
-135.8698793562
 21
109.7721514866
 31
0.0
  0
LINE
  5
1A8
330
1B
100
AcDbEntity
 67
     1
  8
0
  6
Continuous
 62
     7
370
    15
100
AcDbLine
 10
-99.9639389675
 20
109.7721514866
 30
0.0
 11
-114.9639389675
 21
109.7721514866
 31
0.0
  0
LINE
  5
1A9
330
1B
100
AcDbEntity
 67
     1
  8
0
  6
Continuous
 62
     7
370
    15
100
AcDbLine
 10
-114.9639389675
 20
109.7721514866
 30
0.0
 11
-114.9639389675
 21
-58.6398485134
 31
0.0
  0
LINE
  5
1AA
330
1B
100
AcDbEntity
 67
     1
  8
0
  6
Continuous
 62
     7
370
    15
100
AcDbLine
 10
-114.9639389675
 20
-58.6398485134
 30
0.0
 11
-99.9639389675
 21
-58.6398485134
 31
0.0
  0
LINE
  5
1AB
330
1B
100
AcDbEntity
 67
     1
  8
0
  6
Continuous
 62
     7
370
    15
100
AcDbLine
 10
-99.9639389675
 20
-58.6398485134
 30
0.0
 11
-99.9639389675
 21
109.7721514866
 31
0.0
  0
LINE
  5
1AC
330
1B
100
AcDbEntity
 67
     1
  8
0
  6
Continuous
 62
     7
370
    15
100
AcDbLine
 10
28.1971510422
 20
-36.9255019175
 30
0.0
 11
61.2171510422
 21
-36.9255019175
 31
0.0
  0
LINE
  5
1AD
330
1B
100
AcDbEntity
 67
     1
  8
0
  6
Continuous
 62
     7
370
    15
100
AcDbLine
 10
61.2171510422
 20
-36.9255019175
 30
0.0
 11
84.3311510422
 21
-43.553334764
 31
0.0
  0
LINE
  5
1AE
330
1B
100
AcDbEntity
 67
     1
  8
0
  6
Continuous
 62
     7
370
    15
100
AcDbLine
 10
84.3311510422
 20
-90.0115019175
 30
0.0
 11
84.3311510422
 21
-43.553334764
 31
0.0
  0
LINE
  5
1AF
330
1B
100
AcDbEntity
 67
     1
  8
0
  6
Continuous
 62
     7
370
    15
100
AcDbLine
 10
5.0831510422
 20
-43.553334764
 30
0.0
 11
28.1971510422
 21
-36.9255019175
 31
0.0
  0
LINE
  5
1B0
330
1B
100
AcDbEntity
 67
     1
  8
0
  6
Continuous
 62
     7
370
    15
100
AcDbLine
 10
5.0831510422
 20
-90.0115019175
 30
0.0
 11
84.3311510422
 21
-90.0115019175
 31
0.0
  0
LINE
  5
1B1
330
1B
100
AcDbEntity
 67
     1
  8
0
  6
Continuous
 62
     7
370
    15
100
AcDbLine
 10
5.0831510422
 20
-43.553334764
 30
0.0
 11
5.0831510422
 21
-90.0115019175
 31
0.0
  0
LINE
  5
1B2
330
1B
100
AcDbEntity
 67
     1
  8
0
  6
Continuous
 62
     7
370
    15
100
AcDbLine
 10
249.1997797252
 20
-30.1867365536
 30
0.0
 11
249.1997797252
 21
-91.4566928735
 31
0.0
  0
LINE
  5
1B3
330
1B
100
AcDbEntity
 67
     1
  8
0
  6
Continuous
 62
     7
370
    15
100
AcDbLine
 10
94.1997797252
 20
-94.4566928735
 30
0.0
 11
246.1997797252
 21
-94.4566928735
 31
0.0
  0
LINE
  5
1B4
330
1B
100
AcDbEntity
 67
     1
  8
0
  6
Continuous
 62
     7
370
    15
100
AcDbLine
 10
91.1997797252
 20
-91.4566928735
 30
0.0
 11
91.1997797252
 21
-30.1867365536
 31
0.0
  0
LINE
  5
1B5
330
1B
100
AcDbEntity
 67
     1
  8
0
  6
Continuous
 62
     7
370
    15
100
AcDbLine
 10
88.1997797252
 20
-27.1867365536
 30
0.0
 11
60.6997797252
 21
-27.1867365536
 31
0.0
  0
LINE
  5
1B6
330
1B
100
AcDbEntity
 67
     1
  8
0
  6
Continuous
 62
     7
370
    15
100
AcDbLine
 10
57.6997797252
 20
3.9683071265
 30
0.0
 11
57.6997797252
 21
-24.1867365536
 31
0.0
  0
LINE
  5
1B7
330
1B
100
AcDbEntity
 67
     1
  8
0
  6
Continuous
 62
     7
370
    15
100
AcDbLine
 10
61.7695011886
 20
33.9537151858
 30
0.0
 11
99.8153169497
 21
49.3252225365
 31
0.0
  0
LINE
  5
1B8
330
1B
100
AcDbEntity
 67
     1
  8
0
  6
Continuous
 62
     7
370
    15
100
AcDbLine
 10
99.8153169497
 20
49.3252225365
 30
0.0
 11
122.6910411294
 21
105.944626716
 31
0.0
  0
LINE
  5
1B9
330
1B
100
AcDbEntity
 67
     1
  8
0
  6
Continuous
 62
     7
370
    15
100
AcDbLine
 10
144.7997797252
 20
113.5634256309
 30
0.0
 11
144.7997797252
 21
91.0649071265
 31
0.0
  0
LINE
  5
1BA
330
1B
100
AcDbEntity
 67
     1
  8
0
  6
Continuous
 62
     7
370
    15
100
AcDbLine
 10
195.5997797252
 20
91.0649071265
 30
0.0
 11
195.5997797252
 21
113.5634256309
 31
0.0
  0
LINE
  5
1BB
330
1B
100
AcDbEntity
 67
     1
  8
0
  6
Continuous
 62
     7
370
    15
100
AcDbLine
 10
217.7085183211
 20
105.944626716
 30
0.0
 11
240.5842425008
 21
49.3252225365
 31
0.0
  0
LINE
  5
1BC
330
1B
100
AcDbEntity
 67
     1
  8
0
  6
Continuous
 62
     7
370
    15
100
AcDbLine
 10
240.5842425008
 20
49.3252225365
 30
0.0
 11
278.6300582618
 21
33.9537151858
 31
0.0
  0
LINE
  5
1BD
330
1B
100
AcDbEntity
 67
     1
  8
0
  6
Continuous
 62
     7
370
    15
100
AcDbLine
 10
282.6997797252
 20
-24.1867365536
 30
0.0
 11
282.6997797252
 21
3.9683071265
 31
0.0
  0
LINE
  5
1BE
330
1B
100
AcDbEntity
 67
     1
  8
0
  6
Continuous
 62
     7
370
    15
100
AcDbLine
 10
279.6997797252
 20
-27.1867365536
 30
0.0
 11
252.1997797252
 21
-27.1867365536
 31
0.0
  0
LINE
  5
1BF
330
1B
100
AcDbEntity
 67
     1
  8
0
  6
Continuous
 62
     7
370
    15
100
AcDbLine
 10
34.9578528885
 20
106.8960826404
 30
0.0
 11
67.9778528885
 21
106.8960826404
 31
0.0
  0
LINE
  5
1C0
330
1B
100
AcDbEntity
 67
     1
  8
0
  6
Continuous
 62
     7
370
    15
100
AcDbLine
 10
67.9778528885
 20
106.8960826404
 30
0.0
 11
91.0918528885
 21
100.2682497939
 31
0.0
  0
LINE
  5
1C1
330
1B
100
AcDbEntity
 67
     1
  8
0
  6
Continuous
 62
     7
370
    15
100
AcDbLine
 10
91.0918528885
 20
53.8100826404
 30
0.0
 11
91.0918528885
 21
100.2682497939
 31
0.0
  0
LINE
  5
1C2
330
1B
100
AcDbEntity
 67
     1
  8
0
  6
Continuous
 62
     7
370
    15
100
AcDbLine
 10
11.8438528885
 20
53.8100826404
 30
0.0
 11
91.0918528885
 21
53.8100826404
 31
0.0
  0
LINE
  5
1C3
330
1B
100
AcDbEntity
 67
     1
  8
0
  6
Continuous
 62
     7
370
    15
100
AcDbLine
 10
11.8438528885
 20
100.2682497939
 30
0.0
 11
11.8438528885
 21
53.8100826404
 31
0.0
  0
LINE
  5
1C4
330
1B
100
AcDbEntity
 67
     1
  8
0
  6
Continuous
 62
     7
370
    15
100
AcDbLine
 10
11.8438528885
 20
100.2682497939
 30
0.0
 11
34.9578528885
 21
106.8960826404
 31
0.0
  0
ARC
  5
1C5
330
1B
100
AcDbEntity
 67
     1
  8
0
  6
Continuous
 62
     7
370
    15
100
AcDbCircle
 10
252.1997797252
 20
-30.1867365536
 30
0.0
 40
3.0
100
AcDbArc
 50
90.0
 51
180.0
  0
ARC
  5
1C6
330
1B
100
AcDbEntity
 67
     1
  8
0
  6
Continuous
 62
     7
370
    15
100
AcDbCircle
 10
246.1997797252
 20
-91.4566928735
 30
0.0
 40
3.000000000000014
100
AcDbArc
 50
270.0
 51
0.0
  0
ARC
  5
1C7
330
1B
100
AcDbEntity
 67
     1
  8
0
  6
Continuous
 62
     7
370
    15
100
AcDbCircle
 10
94.1997797252
 20
-91.4566928735
 30
0.0
 40
3.000000000000028
100
AcDbArc
 50
180.0
 51
270.0
  0
ARC
  5
1C8
330
1B
100
AcDbEntity
 67
     1
  8
0
  6
Continuous
 62
     7
370
    15
100
AcDbCircle
 10
88.1997797252
 20
-30.1867365536
 30
0.0
 40
3.000000000000046
100
AcDbArc
 50
0.0
 51
90.0
  0
ARC
  5
1C9
330
1B
100
AcDbEntity
 67
     1
  8
0
  6
Continuous
 62
     7
370
    15
100
AcDbCircle
 10
60.6997797252
 20
-24.1867365536
 30
0.0
 40
3.000000000000004
100
AcDbArc
 50
180.0
 51
270.0
  0
ARC
  5
1CA
330
1B
100
AcDbEntity
 67
     1
  8
0
  6
Continuous
 62
     7
370
    15
100
AcDbCircle
 10
170.1997797252
 20
3.9683071265
 30
0.0
 40
112.4999999999985
100
AcDbArc
 50
164.5417007358
 51
180.0
  0
ARC
  5
1CB
330
1B
100
AcDbEntity
 67
     1
  8
0
  6
Continuous
 62
     7
370
    15
100
AcDbCircle
 10
170.1997797252
 20
3.9683071265
 30
0.0
 40
112.5000000000045
100
AcDbArc
 50
103.0486184985
 51
114.9798750827
  0
ARC
  5
1CC
330
1B
100
AcDbEntity
 67
     1
  8
0
  6
Continuous
 62
     7
370
    15
100
AcDbCircle
 10
170.1997797252
 20
91.0649071265
 30
0.0
 40
25.40000000000001
100
AcDbArc
 50
180.0
 51
0.0
  0
ARC
  5
1CD
330
1B
100
AcDbEntity
 67
     1
  8
0
  6
Continuous
 62
     7
370
    15
100
AcDbCircle
 10
170.1997797252
 20
3.9683071265
 30
0.0
 40
112.5000000000066
100
AcDbArc
 50
65.0201249173
 51
76.9513815015
  0
ARC
  5
1CE
330
1B
100
AcDbEntity
 67
     1
  8
0
  6
Continuous
 62
     7
370
    15
100
AcDbCircle
 10
170.1997797252
 20
3.9683071265
 30
0.0
 40
112.5000000000002
100
AcDbArc
 50
0.0
 51
15.4582992642
  0
ARC
  5
1CF
330
1B
100
AcDbEntity
 67
     1
  8
0
  6
Continuous
 62
     7
370
    15
100
AcDbCircle
 10
279.6997797252
 20
-24.1867365536
 30
0.0
 40
3.0
100
AcDbArc
 50
270.0
 51
0.0
  0
VIEWPORT
  5
1D0
330
1B
100
AcDbEntity
 67
     1
  8
0
100
AcDbViewport
 10
0.0
 20
0.0
 30
0.0
 40
243.84
 41
204.216
 68
     1
 69
     1
 12
73.4149501845
 22
9.5533663787
 13
0.0
 23
0.0
 14
10.0
 24
10.0
 15
10.0
 25
10.0
 16
0.0
 26
0.0
 36
1.0
 17
0.0
 27
0.0
 37
0.0
 42
50.0
 43
0.0
 44
0.0
 45
357.5631312703
 50
0.0
 51
0.0
 72
   100
 90
   557152
  1

281
     0
 71
     1
 74
     0
110
0.0
120
0.0
130
0.0
111
1.0
121
0.0
131
0.0
112
0.0
122
1.0
132
0.0
 79
     0
146
0.0
  0
ENDSEC
  0
SECTION
  2
OBJECTS
  0
DICTIONARY
  5
C
330
0
100
AcDbDictionary
281
     1
  3
ACAD_GROUP
350
D
  3
ACAD_LAYOUT
350
1A
  3
ACAD_MLINESTYLE
350
17
  3
ACAD_PLOTSETTINGS
350
19
  3
ACAD_PLOTSTYLENAME
350
E
  0
DICTIONARY
  5
D
102
{ACAD_REACTORS
330
C
102
}
330
C
100
AcDbDictionary
281
     1
  0
DICTIONARY
  5
1A
102
{ACAD_REACTORS
330
C
102
}
330
C
100
AcDbDictionary
281
     1
  3
_Right
350
1E
  3
Layout2
350
26
  3
Model
350
22
  0
DICTIONARY
  5
17
102
{ACAD_REACTORS
330
C
102
}
330
C
100
AcDbDictionary
281
     1
  3
Standard
350
18
  0
DICTIONARY
  5
19
102
{ACAD_REACTORS
330
C
102
}
330
C
100
AcDbDictionary
281
     1
  0
ACDBDICTIONARYWDFLT
  5
E
102
{ACAD_REACTORS
330
C
102
}
330
C
100
AcDbDictionary
281
     1
  3
Normal
350
F
100
AcDbDictionaryWithDefault
340
F
  0
LAYOUT
  5
1E
102
{ACAD_REACTORS
330
1A
102
}
330
1A
100
AcDbPlotSettings
  1

  2
none_device
  4

  6

 40
0.0
 41
0.0
 42
0.0
 43
0.0
 44
0.0
 45
0.0
 46
0.0
 47
0.0
 48
0.0
 49
0.0
140
0.0
141
0.0
142
1.0
143
1.0
 70
   688
 72
     0
 73
     0
 74
     5
  7

 75
    16
147
1.0
148
0.0
149
0.0
100
AcDbLayout
  1
_Right
 70
     1
 71
     1
 10
0.0
 20
0.0
 11
420.0
 21
297.0
 12
0.0
 22
0.0
 32
0.0
 14
-135.8698793562
 24
-94.4566928735
 34
0.0
 15
282.6997797252
 25
113.5634256309
 35
0.0
146
0.0
 13
0.0
 23
0.0
 33
0.0
 16
1.0
 26
0.0
 36
0.0
 17
0.0
 27
1.0
 37
0.0
 76
     0
330
1B
331
1D0
  0
LAYOUT
  5
26
102
{ACAD_REACTORS
330
1A
102
}
330
1A
100
AcDbPlotSettings
  1

  2
none_device
  4

  6

 40
0.0
 41
0.0
 42
0.0
 43
0.0
 44
0.0
 45
0.0
 46
0.0
 47
0.0
 48
0.0
 49
0.0
140
0.0
141
0.0
142
1.0
143
1.0
 70
   688
 72
     0
 73
     0
 74
     5
  7

 75
    16
147
1.0
148
0.0
149
0.0
100
AcDbLayout
  1
Layout2
 70
     1
 71
     2
 10
0.0
 20
0.0
 11
0.0
 21
0.0
 12
0.0
 22
0.0
 32
0.0
 14
0.0
 24
0.0
 34
0.0
 15
0.0
 25
0.0
 35
0.0
146
0.0
 13
0.0
 23
0.0
 33
0.0
 16
1.0
 26
0.0
 36
0.0
 17
0.0
 27
1.0
 37
0.0
 76
     0
330
23
  0
LAYOUT
  5
22
102
{ACAD_REACTORS
330
1A
102
}
330
1A
100
AcDbPlotSettings
  1

  2
none_device
  4
ANSI_A_(11.00_x_8.50_Inches)
  6

 40
6.35
 41
19.05
 42
6.35000508
 43
19.05000254
 44
279.4
 45
215.9
 46
84.8347377651
 47
82.5867880058
 48
0.0
 49
0.0
140
0.0
141
0.0
142
0.0260171748
143
1.0
 70
  1696
 72
     0
 73
     0
 74
     0
  7

 75
     0
147
0.0179189148
148
0.0
149
0.0
100
AcDbLayout
  1
Model
 70
     1
 71
     0
 10
0.0
 20
0.0
 11
420.0
 21
297.0
 12
0.0
 22
0.0
 32
0.0
 14
-135.8698793562
 24
-94.4566928735
 34
0.0
 15
282.6997797252
 25
113.5634256309
 35
0.0
146
0.0
 13
0.0
 23
0.0
 33
0.0
 16
1.0
 26
0.0
 36
0.0
 17
0.0
 27
1.0
 37
0.0
 76
     0
330
1F
331
29
  0
MLINESTYLE
  5
18
102
{ACAD_REACTORS
330
17
102
}
330
17
100
AcDbMlineStyle
  2
Standard
 70
     0
  3

 62
   256
 51
90.0
 52
90.0
 71
     2
 49
0.5
 62
   256
  6
BYLAYER
 49
-0.5
 62
   256
  6
BYLAYER
  0
ACDBPLACEHOLDER
  5
F
102
{ACAD_REACTORS
330
E
102
}
330
E
  0
ENDSEC
  0
EOF
